<svg width="33" height="32" viewBox="0 0 33 32" fill="none" xmlns="http://www.w3.org/2000/svg">
<path d="M0.503906 6C0.503906 4.93913 0.925334 3.92172 1.67548 3.17157C2.42562 2.42143 3.44304 2 4.50391 2H28.5039C29.5648 2 30.5822 2.42143 31.3323 3.17157C32.0825 3.92172 32.5039 4.93913 32.5039 6V26C32.5039 27.0609 32.0825 28.0783 31.3323 28.8284C30.5822 29.5786 29.5648 30 28.5039 30H4.50391C3.44304 30 2.42562 29.5786 1.67548 28.8284C0.925334 28.0783 0.503906 27.0609 0.503906 26V6ZM2.50391 24V26C2.50391 26.5304 2.71462 27.0391 3.08969 27.4142C3.46477 27.7893 3.97347 28 4.50391 28H28.5039C29.0343 28 29.543 27.7893 29.9181 27.4142C30.2932 27.0391 30.5039 26.5304 30.5039 26V19L22.9499 15.106C22.7624 15.012 22.55 14.9795 22.3429 15.0128C22.1358 15.0462 21.9444 15.1439 21.7959 15.292L14.3759 22.712L9.05591 19.168C8.86383 19.0401 8.63343 18.9826 8.40378 19.0052C8.17414 19.0278 7.95937 19.1291 7.79591 19.292L2.50391 24ZM12.5039 11C12.5039 10.2044 12.1878 9.44129 11.6252 8.87868C11.0626 8.31607 10.2996 8 9.50391 8C8.70826 8 7.94519 8.31607 7.38259 8.87868C6.81998 9.44129 6.50391 10.2044 6.50391 11C6.50391 11.7956 6.81998 12.5587 7.38259 13.1213C7.94519 13.6839 8.70826 14 9.50391 14C10.2996 14 11.0626 13.6839 11.6252 13.1213C12.1878 12.5587 12.5039 11.7956 12.5039 11Z" fill="black"/>
</svg>
