<svg width="97" height="26" viewBox="0 0 97 26" fill="none" xmlns="http://www.w3.org/2000/svg">
<path d="M87.509 20.5795C86.5812 20.5795 85.7575 20.4249 85.038 20.1155C84.3248 19.7999 83.76 19.3264 83.3434 18.6951C82.9332 18.0574 82.728 17.2588 82.728 16.2992C82.728 15.4912 82.87 14.8093 83.1541 14.2538C83.4381 13.6982 83.8294 13.2469 84.328 12.8996C84.8266 12.5524 85.4009 12.2904 86.051 12.1136C86.7011 11.9306 87.3954 11.8075 88.1338 11.7443C88.9606 11.6686 89.6265 11.5897 90.1314 11.5076C90.6363 11.4192 91.0024 11.2961 91.2296 11.1383C91.4631 10.9741 91.5799 10.7437 91.5799 10.447V10.3996C91.5799 9.91353 91.4126 9.5379 91.0781 9.27274C90.7436 9.00759 90.2923 8.87502 89.7243 8.87502C89.1121 8.87502 88.6198 9.00759 88.2474 9.27274C87.875 9.5379 87.6383 9.90406 87.5374 10.3712L83.2677 10.2197C83.3939 9.33588 83.7189 8.54674 84.2428 7.85229C84.7729 7.15154 85.4988 6.6023 86.4202 6.20457C87.348 5.80053 88.462 5.59851 89.7622 5.59851C90.6899 5.59851 91.5451 5.70899 92.3278 5.92995C93.1104 6.14459 93.792 6.46025 94.3727 6.87692C94.9533 7.28727 95.4014 7.79232 95.717 8.39206C96.0389 8.99181 96.1998 9.67678 96.1998 10.447V20.3333H91.8449V18.3068H91.7313C91.4726 18.7992 91.1412 19.2159 90.7373 19.5568C90.3397 19.8977 89.8695 20.1534 89.3267 20.3239C88.7902 20.4943 88.1843 20.5795 87.509 20.5795ZM88.9385 17.5492C89.4371 17.5492 89.8852 17.4482 90.2828 17.2462C90.6868 17.0442 91.0087 16.7664 91.2485 16.4129C91.4883 16.053 91.6083 15.6364 91.6083 15.1629V13.7803C91.4757 13.8498 91.3148 13.9129 91.1254 13.9697C90.9424 14.0265 90.7404 14.0802 90.5195 14.1307C90.2986 14.1812 90.0714 14.2254 89.8379 14.2633C89.6044 14.3011 89.3803 14.3359 89.1657 14.3674C88.7302 14.4369 88.3579 14.5442 88.0486 14.6894C87.7456 14.8346 87.5121 15.024 87.348 15.2576C87.1902 15.4849 87.1113 15.7563 87.1113 16.072C87.1113 16.5518 87.2817 16.9179 87.6226 17.1705C87.9697 17.423 88.4083 17.5492 88.9385 17.5492Z" fill="#2B823F"/>
<path d="M72.9543 20.5795C72.0265 20.5795 71.2028 20.4249 70.4833 20.1155C69.7701 19.7999 69.2053 19.3264 68.7887 18.6951C68.3785 18.0574 68.1733 17.2588 68.1733 16.2992C68.1733 15.4912 68.3154 14.8093 68.5994 14.2538C68.8834 13.6982 69.2747 13.2469 69.7733 12.8996C70.2719 12.5524 70.8462 12.2904 71.4963 12.1136C72.1464 11.9306 72.8407 11.8075 73.5791 11.7443C74.4059 11.6686 75.0718 11.5897 75.5767 11.5076C76.0816 11.4192 76.4477 11.2961 76.6749 11.1383C76.9084 10.9741 77.0252 10.7437 77.0252 10.447V10.3996C77.0252 9.91353 76.8579 9.5379 76.5234 9.27274C76.1889 9.00759 75.7376 8.87502 75.1696 8.87502C74.5574 8.87502 74.0651 9.00759 73.6927 9.27274C73.3203 9.5379 73.0837 9.90406 72.9827 10.3712L68.713 10.2197C68.8392 9.33588 69.1642 8.54674 69.6881 7.85229C70.2183 7.15154 70.9441 6.6023 71.8655 6.20457C72.7933 5.80053 73.9073 5.59851 75.2075 5.59851C76.1352 5.59851 76.9905 5.70899 77.7731 5.92995C78.5557 6.14459 79.2373 6.46025 79.818 6.87692C80.3986 7.28727 80.8468 7.79232 81.1623 8.39206C81.4842 8.99181 81.6452 9.67678 81.6452 10.447V20.3333H77.2902V18.3068H77.1766C76.9179 18.7992 76.5865 19.2159 76.1826 19.5568C75.785 19.8977 75.3148 20.1534 74.772 20.3239C74.2355 20.4943 73.6296 20.5795 72.9543 20.5795ZM74.3838 17.5492C74.8824 17.5492 75.3305 17.4482 75.7282 17.2462C76.1321 17.0442 76.454 16.7664 76.6938 16.4129C76.9337 16.053 77.0536 15.6364 77.0536 15.1629V13.7803C76.921 13.8498 76.7601 13.9129 76.5707 13.9697C76.3877 14.0265 76.1857 14.0802 75.9648 14.1307C75.7439 14.1812 75.5167 14.2254 75.2832 14.2633C75.0497 14.3011 74.8256 14.3359 74.611 14.3674C74.1755 14.4369 73.8032 14.5442 73.4939 14.6894C73.191 14.8346 72.9574 15.024 72.7933 15.2576C72.6355 15.4849 72.5567 15.7563 72.5567 16.072C72.5567 16.5518 72.7271 16.9179 73.0679 17.1705C73.415 17.423 73.8537 17.5492 74.3838 17.5492Z" fill="#2B823F"/>
<path d="M58.1796 20.5417C57.1066 20.5417 56.1315 20.2639 55.2542 19.7084C54.3769 19.1528 53.6763 18.3195 53.1525 17.2084C52.6286 16.0972 52.3667 14.7178 52.3667 13.0701C52.3667 11.3593 52.6381 9.95143 53.1809 8.84663C53.7237 7.74184 54.4337 6.92429 55.311 6.39399C56.1946 5.86369 57.1445 5.59853 58.1606 5.59853C58.9243 5.59853 59.5775 5.73111 60.1203 5.99626C60.6631 6.2551 61.1112 6.58969 61.4647 7.00005C61.8181 7.4104 62.0864 7.83653 62.2694 8.27845H62.3641V0.939453H66.9935V20.3333H62.4114V17.9754H62.2694C62.0737 18.4236 61.796 18.8435 61.4363 19.2349C61.0765 19.6263 60.6253 19.9419 60.0825 20.1818C59.546 20.4217 58.9117 20.5417 58.1796 20.5417ZM59.789 16.9337C60.3507 16.9337 60.8304 16.7759 61.228 16.4603C61.6256 16.1383 61.9317 15.6869 62.1463 15.1061C62.3609 14.5253 62.4682 13.8435 62.4682 13.0606C62.4682 12.2652 62.3609 11.5802 62.1463 11.0057C61.938 10.4312 61.6319 9.98931 61.228 9.67997C60.8304 9.37062 60.3507 9.21595 59.789 9.21595C59.2146 9.21595 58.7287 9.37378 58.331 9.68943C57.9334 10.0051 57.6305 10.4502 57.4222 11.0247C57.2202 11.5992 57.1192 12.2778 57.1192 13.0606C57.1192 13.8435 57.2234 14.5253 57.4317 15.1061C57.6399 15.6869 57.9397 16.1383 58.331 16.4603C58.7287 16.7759 59.2146 16.9337 59.789 16.9337Z" fill="#2B823F"/>
<path d="M37.3003 20.6079C35.7793 20.6079 34.4665 20.3081 33.362 19.7083C32.2638 19.1023 31.4181 18.2405 30.8248 17.1231C30.2378 15.9994 29.9443 14.6641 29.9443 13.1174C29.9443 11.6149 30.241 10.3018 30.8343 9.17805C31.4275 8.048 32.2638 7.17048 33.3431 6.54548C34.4223 5.91417 35.6941 5.59851 37.1583 5.59851C38.1934 5.59851 39.1401 5.75949 39.9985 6.08146C40.8569 6.40343 41.5985 6.88007 42.2233 7.51139C42.8481 8.1427 43.3341 8.92237 43.6812 9.85039C44.0284 10.7721 44.2019 11.8296 44.2019 13.0227V14.178H31.5632V11.4886H39.8944C39.8881 10.9962 39.7713 10.5575 39.5441 10.1724C39.3169 9.78726 39.0044 9.48739 38.6068 9.27274C38.2155 9.05179 37.7642 8.94131 37.253 8.94131C36.7355 8.94131 36.2716 9.0581 35.8613 9.29168C35.4511 9.51896 35.1261 9.83146 34.8862 10.2292C34.6464 10.6206 34.5201 11.0657 34.5075 11.5644V14.3011C34.5075 14.8946 34.6243 15.4154 34.8578 15.8636C35.0913 16.3056 35.4227 16.6496 35.8519 16.8958C36.281 17.142 36.7923 17.2652 37.3856 17.2652C37.7958 17.2652 38.1682 17.2083 38.5027 17.0947C38.8372 16.9811 39.1244 16.8138 39.3642 16.5928C39.604 16.3718 39.7839 16.1004 39.9038 15.7784L44.1546 15.9015C43.9779 16.8548 43.5897 17.685 42.9901 18.392C42.3969 19.0928 41.6174 19.6389 40.6517 20.0303C39.6861 20.4154 38.569 20.6079 37.3003 20.6079Z" fill="#2B823F"/>
<path d="M22.3033 20.6079C20.7822 20.6079 19.4694 20.3081 18.3649 19.7083C17.2667 19.1023 16.421 18.2405 15.8277 17.1231C15.2407 15.9994 14.9473 14.6641 14.9473 13.1174C14.9473 11.6149 15.2439 10.3018 15.8372 9.17805C16.4305 8.048 17.2667 7.17048 18.346 6.54548C19.4252 5.91417 20.697 5.59851 22.1613 5.59851C23.1963 5.59851 24.1431 5.75949 25.0014 6.08146C25.8598 6.40343 26.6014 6.88007 27.2262 7.51139C27.8511 8.1427 28.337 8.92237 28.6842 9.85039C29.0313 10.7721 29.2049 11.8296 29.2049 13.0227V14.178H16.5662V11.4886H24.8973C24.891 10.9962 24.7742 10.5575 24.547 10.1724C24.3198 9.78726 24.0074 9.48739 23.6097 9.27274C23.2184 9.05179 22.7672 8.94131 22.2559 8.94131C21.7384 8.94131 21.2745 9.0581 20.8643 9.29168C20.454 9.51896 20.129 9.83146 19.8891 10.2292C19.6493 10.6206 19.5231 11.0657 19.5105 11.5644V14.3011C19.5105 14.8946 19.6272 15.4154 19.8607 15.8636C20.0943 16.3056 20.4256 16.6496 20.8548 16.8958C21.284 17.142 21.7952 17.2652 22.3885 17.2652C22.7987 17.2652 23.1711 17.2083 23.5056 17.0947C23.8401 16.9811 24.1273 16.8138 24.3671 16.5928C24.607 16.3718 24.7868 16.1004 24.9068 15.7784L29.1575 15.9015C28.9808 16.8548 28.5927 17.685 27.9931 18.392C27.3998 19.0928 26.6203 19.6389 25.6547 20.0303C24.689 20.4154 23.5719 20.6079 22.3033 20.6079Z" fill="#2B823F"/>
<path d="M3.99028 25.7879C3.43487 25.7879 2.91101 25.7437 2.41872 25.6553C1.92643 25.5733 1.50356 25.4628 1.15012 25.3239L2.17257 21.9622C2.627 22.1137 3.03724 22.2021 3.40331 22.2273C3.77569 22.2526 4.09441 22.1926 4.3595 22.0474C4.63089 21.9085 4.83917 21.6591 4.98433 21.2993L5.16421 20.8637L-0.00488281 5.78796H4.84232L7.52154 16.1667H7.67302L10.3901 5.78796H15.2657L9.7842 21.7254C9.51912 22.5209 9.14359 23.2216 8.6576 23.8277C8.17793 24.4401 7.55625 24.9199 6.79257 25.2671C6.03519 25.6143 5.10109 25.7879 3.99028 25.7879Z" fill="#2B823F"/>
<path d="M51.2339 11.2222C52.0379 12.6956 51.8338 15.5972 50.3446 16.3325C48.728 17.1085 45.9013 16.3325 44.7438 14.5579C46.3456 14.5547 47.3493 14.2618 48.568 13.8888C49.9003 13.2214 50.774 12.3222 51.2339 11.2222Z" fill="#29813F"/>
</svg>
